<svg xmlns="http://www.w3.org/2000/svg" width="21.76" height="26.198" viewBox="0 0 21.76 26.198">
    <defs>
        <style>.a{fill:#f36;}</style>
    </defs>
    <path class="a"
          d="M25.04,10.233H23.68v-2.5A6.539,6.539,0,0,0,16.88,1.5a6.539,6.539,0,0,0-6.8,6.238v2.5H8.72A2.623,2.623,0,0,0,6,12.728V25.2a2.623,2.623,0,0,0,2.72,2.5H25.04a2.623,2.623,0,0,0,2.72-2.5V12.728A2.623,2.623,0,0,0,25.04,10.233ZM16.88,21.46a2.623,2.623,0,0,1-2.72-2.5,2.623,2.623,0,0,1,2.72-2.5,2.623,2.623,0,0,1,2.72,2.5A2.623,2.623,0,0,1,16.88,21.46ZM21.1,10.233H12.664v-2.5A4.056,4.056,0,0,1,16.88,3.87,4.056,4.056,0,0,1,21.1,7.738Z"
          transform="translate(-6 -1.5)"/>
</svg>